<svg width="308" height="152" viewBox="0 0 308 152" fill="none" xmlns="http://www.w3.org/2000/svg">
<path d="M67.543 118.744C66.8516 118.65 66.2422 118.604 65.7148 118.604C63.793 118.604 62.5332 119.254 61.9355 120.555V133H56.8555V113.98H61.6543L61.7949 116.248C62.8145 114.502 64.2266 113.629 66.0312 113.629C66.5938 113.629 67.1211 113.705 67.6133 113.857L67.543 118.744ZM78.4062 133.352C75.6172 133.352 73.3438 132.496 71.5859 130.785C69.8398 129.074 68.9668 126.795 68.9668 123.947V123.455C68.9668 121.545 69.3359 119.84 70.0742 118.34C70.8125 116.828 71.8555 115.668 73.2031 114.859C74.5625 114.039 76.1094 113.629 77.8438 113.629C80.4453 113.629 82.4902 114.449 83.9785 116.09C85.4785 117.73 86.2285 120.057 86.2285 123.068V125.143H74.1172C74.2812 126.385 74.7734 127.381 75.5938 128.131C76.4258 128.881 77.4746 129.256 78.7402 129.256C80.6973 129.256 82.2266 128.547 83.3281 127.129L85.8242 129.924C85.0625 131.002 84.0312 131.846 82.7305 132.455C81.4297 133.053 79.9883 133.352 78.4062 133.352ZM77.8262 117.742C76.8184 117.742 75.998 118.082 75.3652 118.762C74.7441 119.441 74.3457 120.414 74.1699 121.68H81.2363V121.275C81.2129 120.15 80.9082 119.283 80.3223 118.674C79.7363 118.053 78.9043 117.742 77.8262 117.742ZM100.15 133C99.916 132.543 99.7461 131.975 99.6406 131.295C98.4102 132.666 96.8105 133.352 94.8418 133.352C92.9785 133.352 91.4316 132.812 90.2012 131.734C88.9824 130.656 88.373 129.297 88.373 127.656C88.373 125.641 89.1172 124.094 90.6055 123.016C92.1055 121.938 94.2676 121.393 97.0918 121.381H99.4297V120.291C99.4297 119.412 99.2012 118.709 98.7441 118.182C98.2988 117.654 97.5898 117.391 96.6172 117.391C95.7617 117.391 95.0879 117.596 94.5957 118.006C94.1152 118.416 93.875 118.979 93.875 119.693H88.7949C88.7949 118.592 89.1348 117.572 89.8145 116.635C90.4941 115.697 91.4551 114.965 92.6973 114.438C93.9395 113.898 95.334 113.629 96.8809 113.629C99.2246 113.629 101.082 114.221 102.453 115.404C103.836 116.576 104.527 118.229 104.527 120.361V128.605C104.539 130.41 104.791 131.775 105.283 132.701V133H100.15ZM95.9492 129.467C96.6992 129.467 97.3906 129.303 98.0234 128.975C98.6562 128.635 99.125 128.184 99.4297 127.621V124.352H97.5312C94.9883 124.352 93.6348 125.23 93.4707 126.988L93.4531 127.287C93.4531 127.92 93.6758 128.441 94.1211 128.852C94.5664 129.262 95.1758 129.467 95.9492 129.467ZM116.34 129.256C117.277 129.256 118.039 128.998 118.625 128.482C119.211 127.967 119.516 127.281 119.539 126.426H124.303C124.291 127.715 123.939 128.898 123.248 129.977C122.557 131.043 121.607 131.875 120.4 132.473C119.205 133.059 117.881 133.352 116.428 133.352C113.709 133.352 111.564 132.49 109.994 130.768C108.424 129.033 107.639 126.643 107.639 123.596V123.262C107.639 120.332 108.418 117.994 109.977 116.248C111.535 114.502 113.674 113.629 116.393 113.629C118.771 113.629 120.676 114.309 122.105 115.668C123.547 117.016 124.279 118.814 124.303 121.064H119.539C119.516 120.08 119.211 119.283 118.625 118.674C118.039 118.053 117.266 117.742 116.305 117.742C115.121 117.742 114.225 118.176 113.615 119.043C113.018 119.898 112.719 121.293 112.719 123.227V123.754C112.719 125.711 113.018 127.117 113.615 127.973C114.213 128.828 115.121 129.256 116.34 129.256ZM133.285 109.305V113.98H136.537V117.707H133.285V127.199C133.285 127.902 133.42 128.406 133.689 128.711C133.959 129.016 134.475 129.168 135.236 129.168C135.799 129.168 136.297 129.127 136.73 129.045V132.895C135.734 133.199 134.709 133.352 133.654 133.352C130.092 133.352 128.275 131.553 128.205 127.955V117.707H125.428V113.98H128.205V109.305H133.285ZM149.246 124.088H139.35V119.992H149.246V124.088ZM154.713 133V117.707H151.883V113.98H154.713V112.363C154.713 110.23 155.322 108.578 156.541 107.406C157.771 106.223 159.488 105.631 161.691 105.631C162.395 105.631 163.256 105.748 164.275 105.982L164.223 109.92C163.801 109.814 163.285 109.762 162.676 109.762C160.766 109.762 159.811 110.658 159.811 112.451V113.98H163.59V117.707H159.811V133H154.713ZM177.617 131.066C176.363 132.59 174.629 133.352 172.414 133.352C170.375 133.352 168.816 132.766 167.738 131.594C166.672 130.422 166.127 128.705 166.104 126.443V113.98H171.184V126.268C171.184 128.248 172.086 129.238 173.891 129.238C175.613 129.238 176.797 128.641 177.441 127.445V113.98H182.539V133H177.758L177.617 131.066ZM193.279 125.371L191.451 127.199V133H186.371V106H191.451V120.959L192.436 119.693L197.305 113.98H203.404L196.531 121.908L204.002 133H198.166L193.279 125.371ZM210.963 133H205.865V113.98H210.963V133ZM205.566 109.059C205.566 108.297 205.818 107.67 206.322 107.178C206.838 106.686 207.535 106.439 208.414 106.439C209.281 106.439 209.973 106.686 210.488 107.178C211.004 107.67 211.262 108.297 211.262 109.059C211.262 109.832 210.998 110.465 210.471 110.957C209.955 111.449 209.27 111.695 208.414 111.695C207.559 111.695 206.867 111.449 206.34 110.957C205.824 110.465 205.566 109.832 205.566 109.059ZM225.465 127.744C225.465 127.123 225.154 126.637 224.533 126.285C223.924 125.922 222.939 125.6 221.58 125.318C217.057 124.369 214.795 122.447 214.795 119.553C214.795 117.865 215.492 116.459 216.887 115.334C218.293 114.197 220.127 113.629 222.389 113.629C224.803 113.629 226.73 114.197 228.172 115.334C229.625 116.471 230.352 117.947 230.352 119.764H225.271C225.271 119.037 225.037 118.439 224.568 117.971C224.1 117.49 223.367 117.25 222.371 117.25C221.516 117.25 220.854 117.443 220.385 117.83C219.916 118.217 219.682 118.709 219.682 119.307C219.682 119.869 219.945 120.326 220.473 120.678C221.012 121.018 221.914 121.316 223.18 121.574C224.445 121.82 225.512 122.102 226.379 122.418C229.062 123.402 230.404 125.107 230.404 127.533C230.404 129.268 229.66 130.674 228.172 131.752C226.684 132.818 224.762 133.352 222.406 133.352C220.812 133.352 219.395 133.07 218.152 132.508C216.922 131.934 215.955 131.154 215.252 130.17C214.549 129.174 214.197 128.102 214.197 126.953H219.014C219.061 127.855 219.395 128.547 220.016 129.027C220.637 129.508 221.469 129.748 222.512 129.748C223.484 129.748 224.217 129.566 224.709 129.203C225.213 128.828 225.465 128.342 225.465 127.744ZM232.9 123.314C232.9 121.428 233.264 119.746 233.99 118.27C234.717 116.793 235.76 115.65 237.119 114.842C238.49 114.033 240.078 113.629 241.883 113.629C244.449 113.629 246.541 114.414 248.158 115.984C249.787 117.555 250.695 119.688 250.883 122.383L250.918 123.684C250.918 126.602 250.104 128.945 248.475 130.715C246.846 132.473 244.66 133.352 241.918 133.352C239.176 133.352 236.984 132.473 235.344 130.715C233.715 128.957 232.9 126.566 232.9 123.543V123.314ZM237.98 123.684C237.98 125.488 238.32 126.871 239 127.832C239.68 128.781 240.652 129.256 241.918 129.256C243.148 129.256 244.109 128.787 244.801 127.85C245.492 126.9 245.838 125.389 245.838 123.314C245.838 121.545 245.492 120.174 244.801 119.201C244.109 118.229 243.137 117.742 241.883 117.742C240.641 117.742 239.68 118.229 239 119.201C238.32 120.162 237.98 121.656 237.98 123.684Z" fill="black"/>
<path fill-rule="evenodd" clip-rule="evenodd" d="M159.258 34.7441L164.564 40.0504C166.027 41.5129 166.027 43.8941 164.564 45.3566L161.902 48.0191L151.308 37.4066L153.952 34.7629C155.414 33.2816 157.795 33.2816 159.258 34.7441ZM148.645 40.0504L143.339 45.3566L167.208 69.2254C168.67 70.6879 171.052 70.6879 172.514 69.2254C173.977 67.7629 173.977 65.3816 172.514 63.9191L148.645 40.0504ZM156.014 69.6004H137.264C136.233 69.6004 135.389 70.4441 135.389 71.4754C135.389 72.5066 136.233 73.3504 137.264 73.3504H156.014C157.045 73.3504 157.889 72.5066 157.889 71.4754C157.889 70.4441 157.045 69.6004 156.014 69.6004ZM151.308 58.6129L140.695 48.0004L138.052 50.6441C136.589 52.1066 136.589 54.4879 138.052 55.9504L143.358 61.2566C144.82 62.7191 147.202 62.7191 148.664 61.2566L151.308 58.6129Z" fill="black"/>
<path fill-rule="evenodd" clip-rule="evenodd" d="M154 19C133.576 19 117 35.576 117 56C117 76.424 133.576 93 154 93C174.424 93 191 76.424 191 56C191 35.576 174.424 19 154 19ZM154 85.6C137.646 85.6 124.4 72.354 124.4 56C124.4 49.155 126.731 42.865 130.653 37.87L172.13 79.347C167.135 83.269 160.845 85.6 154 85.6ZM135.87 32.653L177.347 74.13C181.269 69.135 183.6 62.845 183.6 56C183.6 39.646 170.354 26.4 154 26.4C147.155 26.4 140.865 28.731 135.87 32.653Z" fill="#FF5454"/>
</svg>
